<?xml version="1.0" standalone="no"?>
<!DOCTYPE svg PUBLIC "-//W3C//DTD SVG 20010904//EN"
 "http://www.w3.org/TR/2001/REC-SVG-20010904/DTD/svg10.dtd">
<svg version="1.0" xmlns="http://www.w3.org/2000/svg"
 width="621.000000pt" height="621.000000pt" viewBox="0 0 621.000000 621.000000"
 preserveAspectRatio="xMidYMid meet">
<metadata>
Created by potrace 1.11, written by Peter Selinger 2001-2013
</metadata>
<g transform="translate(0.000000,621.000000) scale(0.100000,-0.100000)"
fill="#000000" stroke="none">
<path d="M1808 3534 c-88 -20 -145 -52 -213 -118 -59 -59 -115 -150 -115 -188
0 -10 -4 -18 -8 -18 -9 0 -8 -194 1 -220 15 -43 20 -65 18 -69 -2 -2 2 -7 7
-10 6 -3 12 -12 14 -20 4 -16 41 -62 85 -105 90 -87 183 -126 308 -126 107 0
225 42 280 100 l26 27 -22 27 c-23 29 -47 28 -81 -2 -10 -8 -18 -11 -18 -6 0
5 -4 4 -8 -2 -13 -20 -85 -45 -148 -51 -134 -12 -263 58 -334 182 -33 59 -59
185 -38 185 5 0 4 8 -1 19 -6 10 -7 21 -4 25 4 4 8 14 9 22 1 9 6 23 10 32 4
9 8 23 10 30 1 8 10 22 18 31 9 10 16 21 16 25 0 15 86 88 135 114 45 24 61
27 150 27 81 0 107 -4 136 -20 20 -11 54 -30 75 -41 43 -24 91 -17 80 11 -3 8
-1 15 5 15 5 0 2 11 -6 24 -16 25 -105 76 -165 95 -54 17 -159 19 -222 5z"/>
<path d="M2625 3533 c-93 -21 -105 -25 -105 -33 0 -4 -8 -10 -17 -14 -10 -3
-27 -11 -37 -18 -32 -21 -116 -111 -122 -130 -3 -10 -10 -18 -15 -18 -5 0 -9
-9 -9 -19 0 -11 -6 -26 -13 -33 -8 -7 -14 -20 -15 -28 -2 -29 -8 -66 -13 -75
-6 -12 -3 -123 5 -150 3 -11 9 -36 14 -56 21 -85 127 -207 221 -253 76 -38
133 -49 230 -44 78 4 98 9 163 41 63 32 158 106 158 123 0 4 14 24 31 45 17
21 28 39 24 39 -4 0 -2 6 4 13 6 8 8 17 4 20 -3 4 -2 7 4 7 5 0 10 6 10 13 0
6 5 30 10 52 9 42 10 150 0 175 -7 20 -17 64 -15 70 4 12 -79 128 -113 160
-59 54 -63 57 -105 78 -86 44 -201 57 -299 35z m247 -116 c71 -35 136 -100
164 -167 9 -19 19 -42 24 -50 4 -9 7 -54 6 -100 -1 -69 -6 -96 -27 -140 -38
-80 -91 -135 -167 -172 -60 -30 -76 -33 -152 -33 -71 0 -95 5 -143 27 -58 27
-157 118 -157 145 0 7 -4 13 -9 13 -23 0 -50 203 -31 240 1 3 3 10 4 15 3 24
31 85 38 85 4 0 8 6 8 14 0 15 84 97 121 116 89 49 230 51 321 7z"/>
<path d="M3263 3531 c-17 -15 -18 -45 -17 -428 0 -324 3 -415 13 -427 12 -14
49 -16 275 -16 143 0 267 4 274 9 21 13 22 60 1 71 -10 6 -117 10 -242 10
l-224 0 0 380 c0 274 -4 384 -12 394 -18 22 -49 25 -68 7z"/>
<path d="M4162 3534 c-82 -17 -150 -55 -216 -121 -50 -50 -109 -148 -109 -180
0 -7 -4 -13 -8 -13 -4 0 -6 -8 -4 -17 1 -10 0 -22 -3 -27 -8 -15 -8 -147 1
-153 4 -2 7 -15 7 -27 0 -24 33 -107 54 -135 6 -8 36 -40 67 -72 96 -97 200
-136 343 -126 120 8 214 52 284 131 17 20 36 36 42 36 6 0 9 4 5 9 -3 5 0 13
6 17 9 5 37 58 44 84 1 3 5 12 8 20 30 70 27 221 -5 299 -6 14 -12 29 -12 33
-1 4 -21 35 -45 68 -108 148 -275 211 -459 174z m251 -118 c77 -37 170 -143
180 -203 1 -10 5 -22 9 -28 7 -12 3 -150 -5 -180 -15 -57 -43 -101 -90 -147
-96 -93 -212 -126 -337 -94 -36 9 -66 21 -68 26 -2 6 -10 10 -18 10 -17 0
-124 107 -124 125 0 7 -7 18 -15 25 -8 7 -13 16 -10 20 3 5 1 11 -5 15 -6 4
-8 11 -4 16 3 5 1 15 -4 22 -20 25 -1 217 21 217 6 0 8 3 4 6 -9 9 46 85 88
122 30 27 69 49 135 75 8 4 54 5 101 4 69 -2 96 -8 142 -31z"/>
<path d="M4812 3539 c-12 -5 -22 -16 -23 -26 -1 -10 -2 -198 -3 -418 -2 -430
-1 -435 49 -435 47 0 48 11 49 355 1 178 4 327 9 331 4 4 7 2 7 -4 0 -6 6 -17
13 -24 6 -7 32 -40 57 -73 25 -33 47 -62 50 -65 17 -16 81 -100 77 -100 -4 0
4 -10 16 -23 18 -19 79 -95 172 -215 5 -7 18 -22 28 -33 9 -10 14 -19 11 -19
-3 0 1 -6 8 -14 25 -26 57 -65 73 -90 20 -29 58 -35 81 -11 9 8 13 15 10 15
-3 0 -1 11 4 24 5 13 6 26 4 29 -9 9 -10 157 -1 157 4 0 4 7 -1 17 -6 9 -6 29
-2 45 5 15 6 28 2 28 -4 0 -7 16 -8 35 0 19 3 35 8 35 5 0 5 7 0 17 -6 9 -6
29 -2 45 5 15 6 28 2 28 -4 0 -7 33 -7 74 0 41 3 72 7 70 4 -3 4 5 -1 18 -4
13 -5 35 0 50 4 16 4 28 0 28 -4 0 -4 26 -1 58 4 44 2 62 -10 73 -46 47 -92
17 -86 -56 2 -25 -1 -45 -6 -45 -5 0 -5 -8 -1 -17 7 -15 8 -110 3 -203 -1 -8
1 -34 3 -57 2 -24 0 -43 -5 -43 -5 0 -6 -5 -2 -12 11 -18 10 -228 -1 -228 -5
0 -18 12 -27 28 -13 21 -170 224 -289 372 -11 14 -30 38 -42 54 -12 16 -29 37
-37 47 -8 10 -42 54 -75 98 -63 83 -77 93 -113 80z"/>
<path d="M5603 3537 c-31 -14 -26 -50 15 -109 17 -26 32 -51 32 -57 0 -6 4
-11 8 -11 4 0 21 -22 37 -50 17 -27 33 -50 38 -50 4 0 7 -7 7 -15 0 -8 5 -15
11 -15 5 0 7 -4 4 -10 -3 -5 -2 -10 3 -10 5 0 15 -12 23 -27 8 -16 22 -37 32
-48 23 -26 37 -78 23 -87 -7 -5 -7 -8 -1 -8 12 0 13 -40 1 -58 -4 -7 -3 -12 1
-12 11 0 11 -60 1 -76 -4 -6 -5 -14 -1 -18 10 -9 10 -56 0 -56 -4 0 -5 -6 -1
-12 11 -18 12 -48 2 -54 -4 -3 -6 -10 -2 -15 3 -5 8 -22 10 -36 3 -15 11 -31
17 -35 34 -22 83 7 74 42 -3 11 -1 20 5 20 5 0 6 5 2 12 -10 16 -11 68 -1 68
5 0 5 6 0 13 -11 18 -12 37 -2 37 6 0 7 5 3 12 -4 6 -7 58 -6 116 1 83 4 108
18 123 17 19 36 48 50 79 4 8 10 17 14 20 3 3 23 33 45 67 22 35 43 63 48 63
4 0 7 5 7 11 0 5 19 38 42 72 48 70 51 79 34 103 -11 14 -61 24 -70 13 -2 -2
-56 -82 -119 -177 l-116 -173 -116 174 c-65 97 -124 177 -134 180 -9 2 -26 -1
-38 -6z"/>
<path d="M23 3529 c-20 -20 -18 -835 1 -855 17 -17 212 -20 293 -5 58 11 163
57 163 71 0 6 5 10 11 10 10 0 78 68 104 103 88 119 99 308 27 451 -34 68
-125 157 -203 197 -63 32 -66 33 -224 37 -122 3 -163 1 -172 -9z m305 -88 c23
-7 59 -22 80 -34 77 -45 159 -155 164 -222 1 -14 5 -25 8 -25 6 0 4 -64 -5
-125 -8 -59 -50 -137 -98 -184 -77 -75 -150 -101 -284 -101 -90 0 -93 1 -94
23 0 12 -2 37 -3 54 -2 18 0 30 5 27 5 -3 6 2 2 11 -8 23 -10 475 -1 475 4 0
4 10 -1 23 -8 20 -6 57 3 83 5 14 165 10 224 -5z"/>
<path d="M773 3528 c-15 -20 -23 -48 -14 -48 8 0 5 -62 -4 -87 -2 -7 0 -15 6
-18 5 -4 7 -10 5 -14 -7 -11 -9 -72 -2 -98 2 -13 2 -23 -2 -23 -6 0 -8 -50 -2
-57 3 -4 3 -41 0 -50 -3 -13 -1 -87 3 -108 3 -11 0 -28 -5 -38 -5 -9 -6 -23
-2 -29 10 -16 11 -58 2 -64 -4 -3 -3 -15 1 -27 5 -14 5 -30 -1 -40 -5 -9 -6
-23 -2 -29 10 -16 12 -58 3 -64 -11 -6 2 -48 19 -61 18 -15 558 -19 580 -4 20
12 22 44 4 64 -14 15 -39 17 -264 17 l-248 0 -1 28 c0 15 -1 83 -1 152 l-1
125 184 3 c148 2 186 5 200 18 9 8 16 22 15 30 -5 35 -24 39 -206 39 -99 1
-182 4 -186 8 -10 9 -9 286 1 295 3 4 116 7 250 7 165 0 248 4 255 11 17 17
19 47 4 61 -18 19 -577 19 -591 1z"/>
</g>
</svg>
